# xmcd CD database file
#
# Track frame offsets:
#	150
#	18715
#	35657
#	49182
#	72857
#	95592
#	114900
#	137642
#	164632
#	183220
#	207782
#	226492
#	250557
#	271217
#	290550
#	303630
#	322875
#
# Disc length: 4562 seconds
#
# Revision: 0
# Processed by: cddbd v1.5.1PL0 Copyright (c) Steve Scherf et al.
# Submitted via: CDex 1.51
#
DISCID=f211d011
DTITLE=DRUG STORE COWBOY - BEST SUPERNOVA
DYEAR=2004
DGENRE=Alt Rock
TTITLE0=この世の終わり
TTITLE1=Perfect King
TTITLE2=The Virgin Mary
TTITLE3=蒼天
TTITLE4=PLUS feat.大和EMCEE
TTITLE5=明日の街
TTITLE6=日々これ以上
TTITLE7=myself and my world
TTITLE8=朧月
TTITLE9=under the ground
TTITLE10=Over Drive Me!
TTITLE11=1979
TTITLE12=flower's high
TTITLE13=あの星の降る丘で
TTITLE14=LOUD SOUND and BUZZ SONG
TTITLE15=CALL ME STUPID
TTITLE16=ヒトツボシ
EXTD=YEAR: 2004
EXTT0=
EXTT1=
EXTT2=
EXTT3=
EXTT4=
EXTT5=
EXTT6=
EXTT7=
EXTT8=
EXTT9=
EXTT10=
EXTT11=
EXTT12=
EXTT13=
EXTT14=
EXTT15=
EXTT16=
PLAYORDER=
